<svg xmlns="http://www.w3.org/2000/svg" viewBox="0 0 128 128" fill="none">
  <defs>
    <linearGradient id="blue" x1="18" y1="14" x2="112" y2="116" gradientUnits="userSpaceOnUse">
      <stop stop-color="#0758F0"/>
      <stop offset=".56" stop-color="#0B8EFF"/>
      <stop offset="1" stop-color="#25C8E8"/>
    </linearGradient>
    <linearGradient id="orange" x1="79" y1="72" x2="111" y2="104" gradientUnits="userSpaceOnUse">
      <stop stop-color="#FF8B52"/>
      <stop offset="1" stop-color="#FF4E25"/>
    </linearGradient>
    <filter id="shadow" x="-20%" y="-20%" width="140%" height="150%">
      <feDropShadow dx="0" dy="5" stdDeviation="5" flood-color="#0758F0" flood-opacity=".18"/>
    </filter>
  </defs>
  <g filter="url(#shadow)">
    <path d="M64 8 111 35v54L64 116 17 89V35L64 8Z" stroke="url(#blue)" stroke-width="9" stroke-linejoin="round"/>
    <path d="m64 33 25 14-25 15-25-15 25-14Z" fill="url(#blue)"/>
    <path d="m39 51 22 13v28L39 79V51Z" fill="#0B70F5" fill-opacity=".92"/>
    <path d="m67 64 22-13v28L67 92V64Z" fill="#1AB9EC" fill-opacity=".94"/>
    <path d="m64 68 21 12-21 12-21-12 21-12Z" fill="#fff" fill-opacity=".88"/>
    <circle cx="96" cy="94" r="10" fill="url(#orange)"/>
    <path d="M92 94h8M96 90v8" stroke="#fff" stroke-width="2.6" stroke-linecap="round"/>
  </g>
</svg>
