<svg xmlns="http://www.w3.org/2000/svg" viewBox="0 0 800 240" fill="none">
  <defs>
    <linearGradient id="blue" x1="18" y1="35" x2="755" y2="210" gradientUnits="userSpaceOnUse">
      <stop stop-color="#2ACBED" stop-opacity="0"/>
      <stop offset=".28" stop-color="#1598FC" stop-opacity=".78"/>
      <stop offset=".72" stop-color="#0758ED" stop-opacity=".66"/>
      <stop offset="1" stop-color="#0758ED" stop-opacity="0"/>
    </linearGradient>
    <linearGradient id="orange" x1="174" y1="34" x2="676" y2="203" gradientUnits="userSpaceOnUse">
      <stop stop-color="#FF9A5F" stop-opacity=".08"/>
      <stop offset=".55" stop-color="#FF6233" stop-opacity=".9"/>
      <stop offset="1" stop-color="#FF4E25" stop-opacity="0"/>
    </linearGradient>
  </defs>
  <path d="M-30 182 165 41l111 68 123-84 133 104 117-56 181 112" stroke="url(#blue)" stroke-width="6" stroke-linejoin="round"/>
  <path d="M-24 207 166 67l109 69 124-83 131 102 119-55 177 109" stroke="url(#blue)" stroke-width="1.6" stroke-dasharray="7 12"/>
  <path d="M103 173 220 93l74 48M420 137l84-55 65 52M610 128l57-31 65 43" stroke="url(#orange)" stroke-width="4" stroke-linecap="round"/>
  <circle cx="399" cy="25" r="7" fill="#FF6334"/>
  <circle cx="276" cy="109" r="5" fill="#1CBDEB"/>
  <circle cx="650" cy="73" r="4" fill="#fff" fill-opacity=".8" stroke="#1CBDEB" stroke-width="2"/>
</svg>
